<?xml version="1.0" encoding="UTF-8" standalone="no"?>
<!-- Created with Inkscape (http://www.inkscape.org/) -->

<svg
   width="210mm"
   height="297mm"
   viewBox="0 0 210 297"
   version="1.1"
   id="svg6693"
   xmlns="http://www.w3.org/2000/svg"
   xmlns:svg="http://www.w3.org/2000/svg">
  <defs
     id="defs6690" />
  <g
     id="layer1">
    <rect
       style="opacity:0;fill:#c9c8c7;fill-opacity:1;stroke:none;stroke-width:5.793;stroke-linecap:square;stroke-dasharray:none;stroke-opacity:1"
       id="rect26240"
       width="84.010139"
       height="84.010139"
       x="54.739342"
       y="102.693" />
    <g
       id="g26255"
       transform="translate(1.3382939,-0.1312294)">
      <circle
         style="fill:#280b0b;fill-opacity:1;stroke:none;stroke-width:1.81116;stroke-linecap:square;stroke-dasharray:none;stroke-opacity:1"
         id="path25973"
         cx="95.406967"
         cy="144.8293"
         r="33.659298" />
      <g
         id="g26249">
        <path
           style="fill:#ffffff;fill-opacity:1;stroke-width:0.267318"
           d="m 90.304381,166.68036 c -4.042512,-0.72398 -8.375012,-3.03791 -11.535928,-6.16119 -3.124685,-3.08751 -4.836511,-5.90381 -6.111036,-10.05386 -0.657634,-2.14137 -0.723056,-2.74136 -0.723056,-6.63146 0,-3.90941 0.06334,-4.4839 0.737382,-6.68293 2.657608,-8.67102 9.521152,-14.78892 18.152695,-16.18063 2.793086,-0.45035 7.005925,-0.2052 9.414852,0.54783 2.08769,0.65263 4.67839,1.80792 4.67742,2.08586 -2.6e-4,0.0996 -0.69164,0.54195 -1.53619,0.98303 -1.47505,0.77035 -4.409907,3.01221 -5.054678,3.86116 -0.252049,0.33186 -0.85669,0.39135 -3.255255,0.32031 -4.693953,-0.13905 -7.83122,1.0737 -11.042907,4.26874 -1.654157,1.64556 -3.195163,4.18929 -3.828111,6.31907 l -0.178755,0.60147 h 6.184329 6.184318 l -0.193687,0.60145 c -0.250544,0.77804 -0.251778,5.76746 -0.0022,6.54422 l 0.192085,0.59639 -6.097881,0.0719 c -7.007866,0.0826 -6.542013,-0.17363 -5.122786,2.81782 2.742466,5.78064 8.919194,9.19829 15.054592,8.32985 l 1.613257,-0.22835 1.069263,1.02703 c 1.509996,1.45034 3.467926,2.88023 5.055566,3.69206 l 1.36006,0.69545 -1.73757,0.79198 c -3.10872,1.41695 -4.945263,1.8324 -8.554152,1.93505 -1.837796,0.0522 -3.962809,-0.0162 -4.722224,-0.15225 z"
           id="path25857" />
        <path
           style="fill:#ffffff;fill-opacity:1;stroke:#ffffff;stroke-width:3.259;stroke-dasharray:none;stroke-opacity:1"
           d="m 115.48013,154.72618 c 0.57641,-2.86927 1.52935,-7.81887 2.11763,-10.99914 0.5883,-3.18025 1.13354,-6.00441 1.21164,-6.2759 l 0.14201,-0.49361 h 0.38093 0.38094 l 0.29825,1.62185 c 1.86542,10.14408 2.70219,14.41758 2.92606,14.94377 l 0.26764,0.62909 0.3961,-0.14921 0.39609,-0.14921 1.23745,-4.00565 c 0.68059,-2.20312 1.36707,-4.29033 1.52549,-4.63826 l 0.28802,-0.63257 2.00692,-0.002 c 0.0114,-1.37434 0.008,-0.87916 -0.005,-1.17497 l -3.21625,-0.24146 -0.57098,1.90594 c -0.31406,1.04825 -0.65709,2.25498 -0.76227,2.68159 l -0.19127,0.77568 h -0.54353 -0.54351 v -0.27413 c 0,-0.15077 -0.78481,-4.36911 -1.744,-9.37408 l -1.74401,-9.09995 -0.33917,-0.21078 -0.33918,-0.21081 -0.29886,0.39078 -0.29888,0.39079 -1.23248,7.43119 c -0.67785,4.08716 -1.56188,9.11919 -1.96452,11.18229 l -0.73206,3.75111 -0.46504,-0.088 -0.46503,-0.088 -1.89994,-12.87498 c -1.04497,-7.08123 -1.97602,-13.0696 -2.06899,-13.30744 l -0.16907,-0.43246 -0.59008,0.0436 -0.5901,0.0436 v 0.88652 c 0,0.75911 -2.15491,12.70077 -3.19272,17.69277 l -0.33982,1.63455 -0.42445,-0.0832 -0.42447,-0.0833 -1.49887,-4.59503 c -0.82437,-2.52732 -1.64875,-4.74222 -1.83194,-4.92204 l -0.33309,-0.32697 -0.274177,0.26913 c -0.150789,0.14804 -0.734976,1.51879 -1.298181,3.04613 -0.563216,1.52735 -1.155535,3.01822 -1.316272,3.31307 l -0.292261,0.53606 H 79.424835 l -17.635395,-0.0107 c -0.04203,0.83887 -0.03621,0.86764 -0.04347,1.4219 l 18.52381,-0.0694 18.041521,-0.0728 0.615844,-1.62022 c 0.338719,-0.89111 0.760495,-1.76222 0.937283,-1.93574 l 0.321452,-0.31556 0.29556,0.17931 0.29555,0.17931 1.32064,4.01296 c 0.72635,2.20712 1.52042,4.55239 1.76458,5.21171 l 0.44394,1.19876 h 0.52808 0.52808 l 0.15776,-0.77566 c 0.0868,-0.42661 0.62029,-3.44118 1.18558,-6.699 0.5653,-3.25782 1.22608,-6.78008 1.46842,-7.82724 l 0.44063,-1.90392 h 0.4025 0.4025 l 0.14672,0.63465 c 0.16159,0.69887 2.86317,19.64945 3.1867,22.35347 0.11136,0.93082 0.31486,1.98721 0.4522,2.34755 l 0.24968,0.65516 0.48857,-0.0922 0.48855,-0.0924 z"
           id="path1537" />
      </g>
    </g>
  </g>
</svg>
